<svg width="615" height="736" viewBox="0 0 615 736" fill="none" xmlns="http://www.w3.org/2000/svg">
<path d="M161.753 646.756C164.92 638.369 168.666 631.174 171.321 622.308C190.113 559.536 192.355 493.415 191.973 428.325C191.837 405.131 192.022 381.498 191.56 358.189C191.152 338.359 190.953 318.524 190.962 298.69C191.033 245.688 193.529 192.99 216.209 143.94C224.673 125.636 234.967 110.694 247.918 95.5449C289.505 46.8974 353.597 27.0208 416.162 33.3039C443.062 36.0338 469.352 42.2266 496.475 42.6294C521.086 42.9949 542.138 39.5499 565.164 31.3384C566.231 30.958 567.68 32.2143 568.388 32.8913C574.297 36.8241 576.777 40.784 581.446 45.5306C589.821 53.4667 588.862 57.3566 588.811 68.1145C588.57 120.234 561.206 169.29 507.168 180.495C462.623 189.731 403.395 164.085 371.825 207.346C366.883 214.117 360.539 230.083 360.079 238.441C405.307 235.95 450.043 245.541 495.142 237.746C502.675 236.445 509.889 234.116 517.301 232.245C518.358 232.291 518.997 232.209 519.752 233.259C523.76 238.826 532.559 245.654 535.895 251.215C538.468 255.51 537.063 267.743 537.35 272.656C535.78 304.086 527.646 335.267 503.804 357.279C489.523 370.688 469.348 378.781 450.05 381.042C419.972 384.564 388.819 376.891 367.681 404.998C352.635 425 354.776 444.374 354.712 467.601C354.588 512.674 357.653 554.336 341.27 597.385C332.761 619.767 319.033 639.795 301.225 655.805C284.806 670.702 262.647 682.866 241.132 688.059C229.711 690.816 214.34 694.312 202.536 694.007C198.836 691.779 162.801 655.356 160.323 651.493C160.737 650.012 161.192 648.158 161.753 646.756Z" fill="#DA2265"/>
<path d="M517.301 232.245C518.358 232.291 518.997 232.209 519.752 233.259C523.76 238.826 532.559 245.654 535.895 251.215C538.468 255.51 537.063 267.743 537.35 272.656C535.78 304.086 527.646 335.267 503.804 357.279C489.523 370.688 469.348 378.781 450.05 381.042C419.972 384.564 388.819 376.891 367.681 404.998C352.635 425 354.776 444.374 354.712 467.601C354.588 512.674 357.653 554.336 341.27 597.385C332.761 619.767 319.033 639.795 301.225 655.805C284.806 670.702 262.647 682.866 241.132 688.059C229.711 690.816 214.34 694.313 202.536 694.007C198.836 691.779 162.801 655.356 160.323 651.493C160.737 650.012 161.192 648.158 161.753 646.756C161.728 647.012 161.707 647.267 161.689 647.522C161.588 648.941 161.498 649.577 162.331 650.537C165.525 651.144 175.12 649.15 178.648 648.32C231.739 635.785 275.207 606.215 295.876 554.57C300.805 542.254 303.584 529.428 305.981 516.454C308.541 503.254 310.095 489.878 310.63 476.441C311.219 459.353 309.88 442.538 310.363 425.496C311.007 402.777 311.584 382.875 324.294 363.21C350.924 322.006 398.061 341.027 437.441 331.848C466.041 325.181 488.927 310.482 504.411 285.457C507.535 280.453 510.249 275.203 512.52 269.76C515.73 261.91 521.161 243.174 519.314 234.64C519.033 233.35 518.358 232.891 517.301 232.245Z" fill="#4C4D4F"/>
<path d="M568.388 32.8913C574.297 36.8241 576.777 40.784 581.446 45.5307C589.821 53.4667 588.862 57.3566 588.811 68.1145C588.57 120.234 561.206 169.29 507.168 180.495C462.623 189.731 403.395 164.085 371.825 207.346C366.883 214.117 360.539 230.083 360.079 238.441C358.158 238.925 355.369 239.153 353.237 239.586C339.131 242.449 323.213 248.26 311.335 256.4C311.454 251.702 312.06 246.502 312.231 241.785C313.252 213.579 319.833 182.765 339.018 160.983C356.132 141.553 383.04 132.814 408.524 133.331C416.521 133.493 423.491 134.535 431.309 135.144C443.533 136.211 455.039 136.329 467.307 135.838C518.261 133.796 562.076 95.9614 567.601 44.6027C568.014 40.7528 568.683 36.8478 568.388 32.8913Z" fill="#4C4D4F"/>
</svg>
