<svg width="1976" height="851" viewBox="0 0 1976 851" fill="none" xmlns="http://www.w3.org/2000/svg">
<path d="M1623.83 522.925C1628.72 516.511 1636.72 495.772 1640.35 487.186C1650.64 462.858 1660.3 437.696 1669.26 412.799C1680.18 382.465 1687.65 348.318 1704.58 320.565C1718.03 298.519 1739.48 284.545 1764.39 278.848C1782.05 274.809 1813.64 273.355 1829.54 283.364C1838.45 291.968 1862.9 314.383 1869.29 323.608C1863.66 357.498 1853.89 390.826 1842.13 423.076C1816.27 493.974 1733.73 672.163 1673.88 715.152C1646.84 734.571 1607.92 743.059 1575.12 737.611C1569.58 736.69 1564.12 735.064 1559.36 731.981C1549.65 725.681 1525.44 700.483 1517.91 690.943C1508.2 651.509 1502.17 606.778 1492.36 568.046C1481.4 592.146 1470.1 616.094 1458.48 639.883C1449.35 658.709 1434.71 690.042 1421.26 705.344C1410.77 717.168 1397.54 726.248 1382.73 731.796C1353.44 742.698 1308.11 743.981 1283.31 721.795C1270.76 710.564 1258.58 697.148 1247.09 684.766C1240.72 675.335 1235.53 646.746 1232.23 634.008C1222.25 594.497 1213.23 554.752 1205.18 514.806C1195.48 464.674 1187.95 414.099 1171.43 365.605C1162.36 339.014 1152.98 324.251 1131.79 305.459C1132.5 304.702 1133.23 303.964 1133.98 303.245C1153.96 284.038 1190.1 275.854 1217 276.767C1248.23 277.826 1259.57 289.399 1279.48 310.181C1289.73 319.304 1308.51 336.179 1316.55 346.694C1343.32 381.734 1345.06 430.534 1351.1 472.499C1352.37 481.382 1355.02 507.085 1357.02 514.569C1378.88 470.229 1396.93 423.452 1416.67 378.134C1421.02 368.154 1425.28 357.905 1430.73 348.469C1435.75 339.746 1442 331.781 1449.27 324.813C1466.94 308.012 1489.07 301.512 1513.22 301.996C1524.95 302.23 1545.2 305.564 1553.65 314.557C1561 320.992 1591.25 349.498 1594.73 356.561C1604.89 377.196 1609.45 422.881 1612.93 446.852L1623.83 522.925Z" fill="#DB2164"/>
<path d="M1829.54 283.364C1838.45 291.968 1862.9 314.383 1869.29 323.608C1863.66 357.498 1853.89 390.826 1842.13 423.076C1816.27 493.974 1733.73 672.163 1673.88 715.152C1646.84 734.571 1607.92 743.059 1575.12 737.61C1569.58 736.69 1564.12 735.064 1559.36 731.981C1549.66 725.681 1525.44 700.483 1517.91 690.943C1525.35 694.06 1536.66 695.099 1544.61 695.74C1582.93 698.827 1619.99 687.095 1648.77 661.136C1665.7 645.872 1683.24 617.96 1695.4 598.043C1747.25 513.135 1791.92 420.026 1819.65 324.327C1822.72 313.756 1829.02 293.219 1829.54 283.364Z" fill="#4C4D4F"/>
<path d="M1477.22 474.193C1480.42 499.24 1484.98 524.342 1488.78 549.312C1489.68 555.238 1490.84 562.294 1492.36 568.046C1481.4 592.146 1470.1 616.094 1458.48 639.883C1449.35 658.709 1434.71 690.042 1421.26 705.344C1410.77 717.168 1397.54 726.248 1382.73 731.796C1353.44 742.698 1308.11 743.981 1283.31 721.795C1270.76 710.564 1258.58 697.148 1247.09 684.766C1278.17 696.593 1305.62 702.324 1338.35 690.615C1355.99 684.327 1371.67 673.519 1383.83 659.275C1399.64 640.735 1414.62 607.457 1425.54 585.198C1443.48 548.636 1459.85 511.098 1477.22 474.193Z" fill="#4C4D4F"/>
<path d="M1553.65 314.557C1561 320.992 1591.25 349.498 1594.73 356.561C1604.89 377.196 1609.45 422.881 1612.93 446.852L1623.83 522.925C1614.75 538.372 1610.41 552.482 1598.65 570.668C1595.76 563.647 1594.47 556.679 1593.06 549.25C1581.2 486.679 1574.06 423.319 1563.65 360.496C1561 344.477 1559.24 329.916 1553.65 314.557Z" fill="#4C4D4F"/>
<path d="M1279.48 310.181C1289.73 319.304 1308.51 336.179 1316.55 346.694C1343.32 381.734 1345.06 430.534 1351.1 472.499C1352.37 481.382 1355.02 507.085 1357.02 514.569C1354.3 521.692 1332.86 563.9 1329.77 568.799C1327.27 562.565 1326 557.128 1324.91 550.518C1317.52 503.788 1310.54 456.443 1306.13 409.343C1302.47 370.3 1296.17 345.299 1279.48 310.181Z" fill="#4C4D4F"/>
<path d="M744.496 664.674C660.987 569.567 666.73 425.681 757.553 337.532C848.376 249.382 992.371 247.939 1084.94 334.252C1149.07 394.048 1175.03 484.314 1152.49 569.048C1129.94 653.782 1062.53 719.199 977.165 739.208C891.798 759.217 802.35 730.564 744.496 664.674ZM987.971 422.942C979.635 414.568 962.636 412.037 951.336 412.05C883 412.127 852.813 487.849 853.336 546.11C853.482 562.381 856.3 585.051 863.962 599.553C876.994 605.778 901.044 604.947 914.528 600.965C982.404 580.917 1004.52 482.601 987.971 422.942Z" fill="#DB2164"/>
<path d="M1084.94 334.252C1149.07 394.048 1175.03 484.314 1152.49 569.048C1129.94 653.782 1062.53 719.199 977.165 739.208C891.798 759.217 802.35 730.564 744.496 664.674C746.353 665.304 760.22 674.155 763.03 675.821C772.607 681.495 782.566 686.495 792.837 690.784C847.907 713.5 915.454 711.574 970.189 688.675C1028.25 664.838 1074.44 618.889 1098.58 560.959C1124.24 498.33 1129.31 416.963 1096.57 355.24C1092.64 347.827 1088.31 342.294 1084.94 334.252Z" fill="#4C4D4F"/>
<path d="M863.962 599.553C861.049 598.376 858.162 597.139 855.302 595.84C814.246 576.721 809.868 531.358 812.373 491.302C816.122 431.361 853.693 365.414 921.104 367.559C956.772 368.693 976.692 390.893 987.971 422.942C979.635 414.568 962.636 412.037 951.336 412.05C883 412.127 852.813 487.849 853.336 546.11C853.481 562.381 856.3 585.051 863.962 599.553Z" fill="#4C4D4F"/>
<path d="M68.6773 692.754C111.396 593.332 97.8226 468.724 99.1348 362.733C98.633 309.572 98.5761 260.164 115.449 209.339C148.518 109.726 241.872 60.8184 343.29 78.6132C373.67 83.9786 402.93 87.7643 433.78 84.3512C443.606 83.2641 470.95 73.588 476.701 75.5658C483.875 82.1636 490.5 89.3354 496.508 97.0102C499.391 163.368 467.818 223.63 396.162 225.446C344.495 226.756 279.103 209.837 267.776 281.667C285.101 280.035 304.749 281.33 322.23 282.43C362.236 284.948 387.875 285.447 426.552 274.98C430.599 279.466 441.753 290.782 444.502 294.746C448.322 326.474 441.522 364.116 421.472 389.717C405.833 409.685 382.392 421.271 357.398 424.196C328.21 427.612 297.236 420.631 276.309 447.028C238.413 494.827 297.138 607.375 217.111 691.087C190.846 718.562 157.463 731.913 120.311 736.412C117.225 736.792 114.133 737.129 111.037 737.421C105.091 732.603 70.5225 699.068 68.5787 693.953L68.6773 692.754Z" fill="#DB2164"/>
<path d="M426.552 274.98C430.599 279.466 441.753 290.781 444.502 294.746C448.322 326.474 441.522 364.116 421.472 389.717C405.833 409.685 382.392 421.271 357.398 424.196C328.21 427.612 297.236 420.631 276.309 447.028C238.413 494.827 297.138 607.375 217.111 691.087C190.846 718.562 157.463 731.913 120.311 736.412C117.225 736.792 114.133 737.129 111.037 737.421C105.091 732.603 70.5225 699.068 68.5787 693.953L68.6773 692.754C71.4379 694.089 77.3062 693.212 80.3773 692.631C136.274 682.069 187.391 647.484 205.982 591.766C214.026 567.658 218.567 537.874 218.947 512.168C219.568 470.231 209.167 410.815 253.599 386.626C280.123 372.187 310.966 381.503 339.426 375.946C367.462 370.794 391.992 358.037 408.678 334.257C419.567 318.453 429.954 294.423 426.552 274.98Z" fill="#4C4D4F"/>
<path d="M476.701 75.5658C483.875 82.1636 490.5 89.3354 496.508 97.0101C499.391 163.368 467.818 223.63 396.162 225.446C344.495 226.756 279.103 209.837 267.776 281.667C251.806 282.541 232.917 291.44 219.207 299.015C220.476 288.047 220.521 276.414 221.833 265.631C224.743 241.707 234.816 213.395 253.601 197.45C278.267 175.485 311.547 174.624 342.644 178.226C414.666 186.568 471.681 150.885 476.701 75.5658Z" fill="#4C4D4F"/>
<path d="M542.776 77.0451C579.706 71.0632 608.2 75.9296 634.139 104.271C663.346 132.314 690.604 153.353 689.912 197.022C689.46 225.476 681.416 262.437 676.387 290.71L638.967 501.964L629.681 555.197C626.651 571.819 622.476 589.609 622.36 606.403C631.837 605.781 638.564 600.893 646.391 600.355C656.095 611.633 679.967 631.811 686.414 642.049C687.836 667.882 684.156 696.256 666.357 715.53C631.965 752.769 557.414 758.195 521.098 720.838C511.369 710.831 493.804 695.482 486.627 684.043C481.994 678.918 477.623 673.977 473.563 668.361C442.072 624.804 456.263 564.063 464.901 515.114L482.875 415.723L542.776 77.0451Z" fill="#DB2164"/>
<path d="M634.139 104.271C663.346 132.314 690.604 153.353 689.912 197.022C689.46 225.476 681.416 262.437 676.387 290.71L638.967 501.964L629.681 555.196C626.651 571.819 622.476 589.609 622.36 606.403C575.598 612.498 576.636 585.636 582.653 547.949C585.108 532.564 587.887 516.572 590.451 501.152L631.15 270.453C637.63 233.895 647.774 193.779 648.645 156.954C649.082 138.488 642.002 120.68 634.139 104.271Z" fill="#4C4D4F"/>
<path d="M646.391 600.355C656.095 611.633 679.967 631.811 686.414 642.049C687.836 667.882 684.156 696.256 666.357 715.53C631.965 752.769 557.414 758.195 521.098 720.838C511.369 710.831 493.804 695.482 486.627 684.043C488.261 684.764 490.466 686.298 492.075 687.313C532.514 712.769 600.479 708.429 629.758 667.573C641.123 651.715 649.414 619.409 646.391 600.355Z" fill="#4C4D4F"/>
</svg>
